<svg id="圖層_1" data-name="圖層 1" xmlns="http://www.w3.org/2000/svg" viewBox="0 0 24 24"><defs><style>.cls-1{fill:#907a7b;}</style></defs><path class="cls-1" d="M17.46,7.88a2.13,2.13,0,0,0-.52-.8,2.16,2.16,0,0,0-.8-.53,4,4,0,0,0-1.3-.24c-.74,0-1,0-2.83,0s-2.09,0-2.83,0a4,4,0,0,0-1.3.24,2.16,2.16,0,0,0-.8.53,2,2,0,0,0-.53.8,4,4,0,0,0-.24,1.3c0,.73,0,1,0,2.83s0,2.09,0,2.82a3.92,3.92,0,0,0,.24,1.3,2.26,2.26,0,0,0,1.33,1.33,3.67,3.67,0,0,0,1.3.24c.73,0,1,0,2.83,0s2.08,0,2.82,0a3.73,3.73,0,0,0,1.3-.24,2.3,2.3,0,0,0,1.33-1.33,3.73,3.73,0,0,0,.24-1.3c0-.74,0-1,0-2.82s0-2.09,0-2.83A3.78,3.78,0,0,0,17.46,7.88ZM12,15.6A3.6,3.6,0,1,1,15.6,12,3.6,3.6,0,0,1,12,15.6Zm3.74-6.5a.84.84,0,1,1,.84-.84A.84.84,0,0,1,15.74,9.1Z"/><path class="cls-1" d="M12,9.67A2.33,2.33,0,1,0,14.34,12,2.33,2.33,0,0,0,12,9.67Z"/><path class="cls-1" d="M12,0A12,12,0,1,0,24,12,12,12,0,0,0,12,0Zm7,14.89a5.43,5.43,0,0,1-.33,1.7,3.55,3.55,0,0,1-2.05,2,4.8,4.8,0,0,1-1.69.33c-.75,0-1,0-2.89,0s-2.14,0-2.89,0a4.8,4.8,0,0,1-1.69-.33,3.55,3.55,0,0,1-2-2A5.43,5.43,0,0,1,5,14.89c0-.75,0-1,0-2.89s0-2.14,0-2.89a5.19,5.19,0,0,1,.32-1.7,3.47,3.47,0,0,1,.81-1.23,3.3,3.3,0,0,1,1.24-.81A4.82,4.82,0,0,1,9.12,5c.74,0,1,0,2.88,0s2.14,0,2.89,0a5.43,5.43,0,0,1,1.7.33,3.38,3.38,0,0,1,1.24.81,3.42,3.42,0,0,1,.81,1.24A5.08,5.08,0,0,1,19,9.12c0,.74,0,1,0,2.88S19,14.14,19,14.89Z"/></svg>