<svg id="圖層_1" data-name="圖層 1" xmlns="http://www.w3.org/2000/svg" viewBox="0 0 24 24"><defs><style>.cls-1{fill:#fff;}</style></defs><path class="cls-1" d="M12,0A12,12,0,1,0,24,12,12,12,0,0,0,12,0Zm3.38,7.33H14.13a1.61,1.61,0,0,0-.54.09.86.86,0,0,0-.55.8c0,.65,0,1.3,0,1.95,0,.1.07.08.12.08h2c.13,0,.15,0,.14.15-.1.7-.18,1.41-.27,2.11,0,0,0,.08,0,.12s0,.11-.12.11H13.17c-.12,0-.15,0-.15.14q0,3,0,6A.49.49,0,0,0,13,19H10.53v-.14c0-2,0-4,0-6,0-.12,0-.16-.16-.15H8.64c-.1,0-.14,0-.14-.12q0-1.12,0-2.25c0-.1,0-.12.13-.12h1.76c.11,0,.15,0,.15-.14,0-.74,0-1.48,0-2.23a3,3,0,0,1,1-2.2A2.85,2.85,0,0,1,13.15,5s.1,0,.13,0h1c.23,0,.47,0,.71,0a2.19,2.19,0,0,0,.36,0c.09,0,.11,0,.11.12q0,1,0,2C15.5,7.31,15.47,7.33,15.38,7.33Z"/></svg>